# MagicaVoxel @ Ephtracy

# group
o 

# material
mtllib banco.mtl
usemtl palette

# normals
vn -1 0 0
vn 1 0 0
vn 0 0 1
vn 0 0 -1
vn 0 -1 0
vn 0 1 0

# texcoords
vt 0.318359 0.5
vt 0.322266 0.5
vt 0.357422 0.5

# verts
v -0.7 0.2 1.7
v -0.7 0.2 1.6
v -0.7 0.2 1.5
v -0.7 0.2 1.4
v -0.7 0.3 1.7
v -0.7 0.3 1.6
v -0.7 0.3 1.5
v -0.7 0.3 1.4
v -0.6 0 1.6
v -0.6 0 1.5
v -0.6 0.1 1.6
v -0.6 0.1 1.5
v -0.6 0.2 1.6
v -0.6 0.2 1.5
v 0.5 0 1.6
v 0.5 0 1.5
v 0.5 0.1 1.6
v 0.5 0.1 1.5
v 0.5 0.2 1.6
v 0.5 0.2 1.5
v -0.5 0 1.6
v -0.5 0 1.5
v -0.5 0.1 1.6
v -0.5 0.1 1.5
v -0.5 0.2 1.6
v -0.5 0.2 1.5
v 0.6 0 1.6
v 0.6 0 1.5
v 0.6 0.1 1.6
v 0.6 0.1 1.5
v 0.6 0.2 1.6
v 0.6 0.2 1.5
v 0.7 0.2 1.7
v 0.7 0.2 1.6
v 0.7 0.2 1.5
v 0.7 0.2 1.4
v 0.7 0.3 1.7
v 0.7 0.3 1.6
v 0.7 0.3 1.5
v 0.7 0.3 1.4
v -0.7 0.2 1.7
v -0.7 0.3 1.7
v -0.6 0.2 1.7
v -0.6 0.3 1.7
v -0.5 0.2 1.7
v -0.5 0.3 1.7
v -0.4 0.2 1.7
v -0.4 0.3 1.7
v -0.2 0.2 1.7
v -0.2 0.3 1.7
v -0.1 0.2 1.7
v -0.1 0.3 1.7
v 0 0.2 1.7
v 0 0.3 1.7
v 0.1 0.2 1.7
v 0.1 0.3 1.7
v 0.3 0.2 1.7
v 0.3 0.3 1.7
v 0.5 0.2 1.7
v 0.5 0.3 1.7
v 0.6 0.2 1.7
v 0.6 0.3 1.7
v 0.7 0.2 1.7
v 0.7 0.3 1.7
v -0.6 0 1.6
v -0.6 0.1 1.6
v -0.6 0.2 1.6
v -0.5 0 1.6
v -0.5 0.1 1.6
v -0.5 0.2 1.6
v 0.5 0 1.6
v 0.5 0.1 1.6
v 0.5 0.2 1.6
v 0.6 0 1.6
v 0.6 0.1 1.6
v 0.6 0.2 1.6
v -0.6 0 1.5
v -0.6 0.1 1.5
v -0.6 0.2 1.5
v -0.5 0 1.5
v -0.5 0.1 1.5
v -0.5 0.2 1.5
v 0.5 0 1.5
v 0.5 0.1 1.5
v 0.5 0.2 1.5
v 0.6 0 1.5
v 0.6 0.1 1.5
v 0.6 0.2 1.5
v -0.7 0.2 1.4
v -0.7 0.3 1.4
v -0.6 0.2 1.4
v -0.6 0.3 1.4
v -0.5 0.2 1.4
v -0.5 0.3 1.4
v -0.3 0.2 1.4
v -0.3 0.3 1.4
v -0.2 0.2 1.4
v -0.2 0.3 1.4
v 0 0.2 1.4
v 0 0.3 1.4
v 0.1 0.2 1.4
v 0.1 0.3 1.4
v 0.2 0.2 1.4
v 0.2 0.3 1.4
v 0.3 0.2 1.4
v 0.3 0.3 1.4
v 0.4 0.2 1.4
v 0.4 0.3 1.4
v 0.5 0.2 1.4
v 0.5 0.3 1.4
v 0.6 0.2 1.4
v 0.6 0.3 1.4
v 0.7 0.2 1.4
v 0.7 0.3 1.4
v -0.6 0 1.6
v -0.5 0 1.6
v 0.5 0 1.6
v 0.6 0 1.6
v -0.6 0 1.5
v -0.5 0 1.5
v 0.5 0 1.5
v 0.6 0 1.5
v -0.7 0.2 1.7
v -0.6 0.2 1.7
v -0.5 0.2 1.7
v -0.4 0.2 1.7
v -0.2 0.2 1.7
v -0.1 0.2 1.7
v 0 0.2 1.7
v 0.1 0.2 1.7
v 0.3 0.2 1.7
v 0.5 0.2 1.7
v 0.6 0.2 1.7
v 0.7 0.2 1.7
v -0.7 0.2 1.6
v -0.6 0.2 1.6
v -0.5 0.2 1.6
v -0.4 0.2 1.6
v -0.3 0.2 1.6
v -0.2 0.2 1.6
v -0.1 0.2 1.6
v 0 0.2 1.6
v 0.1 0.2 1.6
v 0.3 0.2 1.6
v 0.4 0.2 1.6
v 0.5 0.2 1.6
v 0.6 0.2 1.6
v 0.7 0.2 1.6
v -0.7 0.2 1.5
v -0.6 0.2 1.5
v -0.5 0.2 1.5
v -0.4 0.2 1.5
v -0.3 0.2 1.5
v -0.2 0.2 1.5
v -0.1 0.2 1.5
v 0 0.2 1.5
v 0.1 0.2 1.5
v 0.2 0.2 1.5
v 0.4 0.2 1.5
v 0.5 0.2 1.5
v 0.6 0.2 1.5
v 0.7 0.2 1.5
v -0.7 0.2 1.4
v -0.6 0.2 1.4
v -0.5 0.2 1.4
v -0.3 0.2 1.4
v -0.2 0.2 1.4
v 0 0.2 1.4
v 0.1 0.2 1.4
v 0.2 0.2 1.4
v 0.3 0.2 1.4
v 0.4 0.2 1.4
v 0.5 0.2 1.4
v 0.6 0.2 1.4
v 0.7 0.2 1.4
v -0.7 0.3 1.7
v -0.6 0.3 1.7
v -0.5 0.3 1.7
v -0.4 0.3 1.7
v -0.2 0.3 1.7
v -0.1 0.3 1.7
v 0 0.3 1.7
v 0.1 0.3 1.7
v 0.3 0.3 1.7
v 0.5 0.3 1.7
v 0.6 0.3 1.7
v 0.7 0.3 1.7
v -0.7 0.3 1.6
v -0.6 0.3 1.6
v -0.5 0.3 1.6
v -0.4 0.3 1.6
v -0.3 0.3 1.6
v -0.2 0.3 1.6
v -0.1 0.3 1.6
v 0 0.3 1.6
v 0.1 0.3 1.6
v 0.3 0.3 1.6
v 0.4 0.3 1.6
v 0.5 0.3 1.6
v 0.6 0.3 1.6
v 0.7 0.3 1.6
v -0.7 0.3 1.5
v -0.6 0.3 1.5
v -0.5 0.3 1.5
v -0.4 0.3 1.5
v -0.3 0.3 1.5
v -0.2 0.3 1.5
v -0.1 0.3 1.5
v 0 0.3 1.5
v 0.1 0.3 1.5
v 0.2 0.3 1.5
v 0.4 0.3 1.5
v 0.5 0.3 1.5
v 0.6 0.3 1.5
v 0.7 0.3 1.5
v -0.7 0.3 1.4
v -0.6 0.3 1.4
v -0.5 0.3 1.4
v -0.3 0.3 1.4
v -0.2 0.3 1.4
v 0 0.3 1.4
v 0.1 0.3 1.4
v 0.2 0.3 1.4
v 0.3 0.3 1.4
v 0.4 0.3 1.4
v 0.5 0.3 1.4
v 0.6 0.3 1.4
v 0.7 0.3 1.4

# faces
f 5/2/1 2/2/1 1/2/1
f 6/1/1 3/1/1 2/1/1
f 6/2/1 2/2/1 5/2/1
f 7/3/1 4/3/1 3/3/1
f 7/1/1 3/1/1 6/1/1
f 8/3/1 4/3/1 7/3/1
f 11/2/1 10/2/1 9/2/1
f 12/2/1 10/2/1 11/2/1
f 13/1/1 12/1/1 11/1/1
f 14/1/1 12/1/1 13/1/1
f 17/1/1 16/1/1 15/1/1
f 18/1/1 16/1/1 17/1/1
f 19/2/1 18/2/1 17/2/1
f 20/2/1 18/2/1 19/2/1
f 21/2/2 22/2/2 23/2/2
f 23/2/2 22/2/2 24/2/2
f 23/1/2 24/1/2 25/1/2
f 25/1/2 24/1/2 26/1/2
f 27/1/2 28/1/2 29/1/2
f 29/1/2 28/1/2 30/1/2
f 29/2/2 30/2/2 31/2/2
f 31/2/2 30/2/2 32/2/2
f 33/2/2 34/2/2 37/2/2
f 34/3/2 35/3/2 38/3/2
f 37/2/2 34/2/2 38/2/2
f 35/2/2 36/2/2 39/2/2
f 38/3/2 35/3/2 39/3/2
f 39/2/2 36/2/2 40/2/2
f 43/2/3 42/2/3 41/2/3
f 44/2/3 42/2/3 43/2/3
f 45/3/3 44/3/3 43/3/3
f 46/3/3 44/3/3 45/3/3
f 47/1/3 46/1/3 45/1/3
f 48/1/3 46/1/3 47/1/3
f 49/2/3 48/2/3 47/2/3
f 50/2/3 48/2/3 49/2/3
f 51/1/3 50/1/3 49/1/3
f 52/1/3 50/1/3 51/1/3
f 53/3/3 52/3/3 51/3/3
f 54/3/3 52/3/3 53/3/3
f 55/2/3 54/2/3 53/2/3
f 56/2/3 54/2/3 55/2/3
f 57/3/3 56/3/3 55/3/3
f 58/3/3 56/3/3 57/3/3
f 59/2/3 58/2/3 57/2/3
f 60/2/3 58/2/3 59/2/3
f 61/3/3 60/3/3 59/3/3
f 62/3/3 60/3/3 61/3/3
f 63/2/3 62/2/3 61/2/3
f 64/2/3 62/2/3 63/2/3
f 68/2/3 66/2/3 65/2/3
f 69/1/3 67/1/3 66/1/3
f 69/2/3 66/2/3 68/2/3
f 70/1/3 67/1/3 69/1/3
f 74/1/3 72/1/3 71/1/3
f 75/2/3 73/2/3 72/2/3
f 75/1/3 72/1/3 74/1/3
f 76/2/3 73/2/3 75/2/3
f 77/2/4 78/2/4 80/2/4
f 78/1/4 79/1/4 81/1/4
f 80/2/4 78/2/4 81/2/4
f 81/1/4 79/1/4 82/1/4
f 83/1/4 84/1/4 86/1/4
f 84/2/4 85/2/4 87/2/4
f 86/1/4 84/1/4 87/1/4
f 87/2/4 85/2/4 88/2/4
f 89/3/4 90/3/4 91/3/4
f 91/3/4 90/3/4 92/3/4
f 91/1/4 92/1/4 93/1/4
f 93/1/4 92/1/4 94/1/4
f 93/2/4 94/2/4 95/2/4
f 95/2/4 94/2/4 96/2/4
f 95/1/4 96/1/4 97/1/4
f 97/1/4 96/1/4 98/1/4
f 97/2/4 98/2/4 99/2/4
f 99/2/4 98/2/4 100/2/4
f 99/1/4 100/1/4 101/1/4
f 101/1/4 100/1/4 102/1/4
f 101/2/4 102/2/4 103/2/4
f 103/2/4 102/2/4 104/2/4
f 103/1/4 104/1/4 105/1/4
f 105/1/4 104/1/4 106/1/4
f 105/2/4 106/2/4 107/2/4
f 107/2/4 106/2/4 108/2/4
f 107/1/4 108/1/4 109/1/4
f 109/1/4 108/1/4 110/1/4
f 109/3/4 110/3/4 111/3/4
f 111/3/4 110/3/4 112/3/4
f 111/2/4 112/2/4 113/2/4
f 113/2/4 112/2/4 114/2/4
f 119/2/5 116/2/5 115/2/5
f 120/2/5 116/2/5 119/2/5
f 121/1/5 118/1/5 117/1/5
f 122/1/5 118/1/5 121/1/5
f 135/2/5 124/2/5 123/2/5
f 136/3/5 125/3/5 124/3/5
f 136/2/5 124/2/5 135/2/5
f 137/1/5 126/1/5 125/1/5
f 137/3/5 125/3/5 136/3/5
f 138/2/5 127/2/5 126/2/5
f 138/1/5 126/1/5 137/1/5
f 139/2/5 127/2/5 138/2/5
f 140/1/5 128/1/5 127/1/5
f 140/2/5 127/2/5 139/2/5
f 141/3/5 129/3/5 128/3/5
f 141/1/5 128/1/5 140/1/5
f 142/2/5 130/2/5 129/2/5
f 142/3/5 129/3/5 141/3/5
f 143/3/5 131/3/5 130/3/5
f 143/2/5 130/2/5 142/2/5
f 144/2/5 132/2/5 131/2/5
f 144/3/5 131/3/5 143/3/5
f 145/2/5 132/2/5 144/2/5
f 146/3/5 133/3/5 132/3/5
f 146/2/5 132/2/5 145/2/5
f 147/2/5 134/2/5 133/2/5
f 147/3/5 133/3/5 146/3/5
f 148/2/5 134/2/5 147/2/5
f 149/1/5 136/1/5 135/1/5
f 150/1/5 136/1/5 149/1/5
f 151/2/5 138/2/5 137/2/5
f 152/1/5 139/1/5 138/1/5
f 152/2/5 138/2/5 151/2/5
f 153/3/5 140/3/5 139/3/5
f 153/1/5 139/1/5 152/1/5
f 154/2/5 141/2/5 140/2/5
f 154/3/5 140/3/5 153/3/5
f 155/3/5 142/3/5 141/3/5
f 155/2/5 141/2/5 154/2/5
f 155/3/5 143/3/5 142/3/5
f 156/3/5 143/3/5 155/3/5
f 157/1/5 144/1/5 143/1/5
f 157/3/5 143/3/5 156/3/5
f 158/1/5 144/1/5 157/1/5
f 159/3/5 146/3/5 145/3/5
f 159/2/5 145/2/5 144/2/5
f 160/3/5 146/3/5 159/3/5
f 161/3/5 148/3/5 147/3/5
f 162/3/5 148/3/5 161/3/5
f 163/3/5 150/3/5 149/3/5
f 164/1/5 151/1/5 150/1/5
f 164/3/5 150/3/5 163/3/5
f 165/2/5 152/2/5 151/2/5
f 165/1/5 151/1/5 164/1/5
f 165/2/5 153/2/5 152/2/5
f 166/1/5 154/1/5 153/1/5
f 166/2/5 153/2/5 165/2/5
f 167/2/5 156/2/5 155/2/5
f 167/1/5 154/1/5 166/1/5
f 167/2/5 155/2/5 154/2/5
f 168/1/5 157/1/5 156/1/5
f 168/2/5 156/2/5 167/2/5
f 169/2/5 158/2/5 157/2/5
f 169/1/5 157/1/5 168/1/5
f 170/1/5 144/1/5 158/1/5
f 170/2/5 158/2/5 169/2/5
f 171/2/5 159/2/5 144/2/5
f 171/1/5 144/1/5 170/1/5
f 172/1/5 160/1/5 159/1/5
f 172/2/5 159/2/5 171/2/5
f 173/3/5 161/3/5 160/3/5
f 173/1/5 160/1/5 172/1/5
f 174/2/5 162/2/5 161/2/5
f 174/3/5 161/3/5 173/3/5
f 175/2/5 162/2/5 174/2/5
f 176/2/6 177/2/6 188/2/6
f 177/3/6 178/3/6 189/3/6
f 188/2/6 177/2/6 189/2/6
f 178/1/6 179/1/6 190/1/6
f 189/3/6 178/3/6 190/3/6
f 179/2/6 180/2/6 191/2/6
f 190/1/6 179/1/6 191/1/6
f 191/2/6 180/2/6 192/2/6
f 180/1/6 181/1/6 193/1/6
f 192/2/6 180/2/6 193/2/6
f 181/3/6 182/3/6 194/3/6
f 193/1/6 181/1/6 194/1/6
f 182/2/6 183/2/6 195/2/6
f 194/3/6 182/3/6 195/3/6
f 183/3/6 184/3/6 196/3/6
f 195/2/6 183/2/6 196/2/6
f 184/2/6 185/2/6 197/2/6
f 196/3/6 184/3/6 197/3/6
f 197/2/6 185/2/6 198/2/6
f 185/3/6 186/3/6 199/3/6
f 198/2/6 185/2/6 199/2/6
f 186/2/6 187/2/6 200/2/6
f 199/3/6 186/3/6 200/3/6
f 200/2/6 187/2/6 201/2/6
f 188/1/6 189/1/6 202/1/6
f 189/2/6 190/2/6 203/2/6
f 202/1/6 189/1/6 203/1/6
f 190/2/6 191/2/6 203/2/6
f 203/2/6 191/2/6 204/2/6
f 191/1/6 192/1/6 205/1/6
f 204/2/6 191/2/6 205/2/6
f 192/3/6 193/3/6 206/3/6
f 205/1/6 192/1/6 206/1/6
f 193/2/6 194/2/6 207/2/6
f 206/3/6 193/3/6 207/3/6
f 194/3/6 195/3/6 208/3/6
f 207/2/6 194/2/6 208/2/6
f 195/3/6 196/3/6 208/3/6
f 208/3/6 196/3/6 209/3/6
f 196/1/6 197/1/6 210/1/6
f 209/3/6 196/3/6 210/3/6
f 210/1/6 197/1/6 211/1/6
f 198/3/6 199/3/6 212/3/6
f 197/2/6 198/2/6 212/2/6
f 199/2/6 200/2/6 213/2/6
f 212/3/6 199/3/6 213/3/6
f 200/3/6 201/3/6 214/3/6
f 213/2/6 200/2/6 214/2/6
f 214/3/6 201/3/6 215/3/6
f 202/3/6 203/3/6 216/3/6
f 203/1/6 204/1/6 217/1/6
f 216/3/6 203/3/6 217/3/6
f 204/2/6 205/2/6 218/2/6
f 217/1/6 204/1/6 218/1/6
f 205/2/6 206/2/6 218/2/6
f 206/1/6 207/1/6 219/1/6
f 218/2/6 206/2/6 219/2/6
f 208/2/6 209/2/6 220/2/6
f 219/1/6 207/1/6 220/1/6
f 207/2/6 208/2/6 220/2/6
f 209/1/6 210/1/6 221/1/6
f 220/2/6 209/2/6 221/2/6
f 210/2/6 211/2/6 222/2/6
f 221/1/6 210/1/6 222/1/6
f 211/1/6 197/1/6 223/1/6
f 222/2/6 211/2/6 223/2/6
f 197/2/6 212/2/6 224/2/6
f 223/1/6 197/1/6 224/1/6
f 212/1/6 213/1/6 225/1/6
f 224/2/6 212/2/6 225/2/6
f 213/3/6 214/3/6 226/3/6
f 225/1/6 213/1/6 226/1/6
f 214/2/6 215/2/6 227/2/6
f 226/3/6 214/3/6 227/3/6
f 227/2/6 215/2/6 228/2/6
