# MagicaVoxel @ Ephtracy

# group
o 

# material
mtllib Farol.mtl
usemtl palette

# normals
vn -1 0 0
vn 1 0 0
vn 0 0 1
vn 0 0 -1
vn 0 -1 0
vn 0 1 0

# texcoords
vt 0.849609 0.5
vt 0.853516 0.5
vt 0.876953 0.5
vt 0.994141 0.5

# verts
v -0.2 1.7 0.2
v -0.2 1.7 -0.1
v -0.2 1.8 0.2
v -0.2 1.8 -0.1
v -0.2 1.9 0.2
v -0.2 1.9 -0.1
v -0.2 2 0.2
v -0.2 2 -0.1
v -0.2 2.1 0.2
v -0.2 2.1 -0.1
v -0.2 2.2 0.2
v -0.2 2.2 -0.1
v -0.2 2.3 0.2
v -0.2 2.3 -0.1
v -0.2 2.4 0.2
v -0.2 2.4 -0.1
v -0.2 2.5 0.2
v -0.2 2.5 -0.1
v -0.2 2.6 0.2
v -0.2 2.6 -0.1
v -0.0999999 1.6 0.2
v -0.0999999 1.6 -0.1
v -0.0999999 1.7 0.3
v -0.0999999 1.7 0.2
v -0.0999999 1.7 -0.1
v -0.0999999 1.7 -0.2
v -0.0999999 1.8 0.3
v -0.0999999 1.8 0.2
v -0.0999999 1.8 -0.1
v -0.0999999 1.8 -0.2
v -0.0999999 1.9 0.3
v -0.0999999 1.9 0.2
v -0.0999999 1.9 -0.1
v -0.0999999 1.9 -0.2
v -0.0999999 2 0.3
v -0.0999999 2 0.2
v -0.0999999 2 -0.1
v -0.0999999 2 -0.2
v -0.0999999 2.1 0.3
v -0.0999999 2.1 0.2
v -0.0999999 2.1 -0.1
v -0.0999999 2.1 -0.2
v -0.0999999 2.2 0.3
v -0.0999999 2.2 0.2
v -0.0999999 2.2 -0.1
v -0.0999999 2.2 -0.2
v -0.0999999 2.3 0.3
v -0.0999999 2.3 0.2
v -0.0999999 2.3 -0.1
v -0.0999999 2.3 -0.2
v -0.0999999 2.4 0.3
v -0.0999999 2.4 0.2
v -0.0999999 2.4 -0.1
v -0.0999999 2.4 -0.2
v -0.0999999 2.5 0.3
v -0.0999999 2.5 0.2
v -0.0999999 2.5 -0.1
v -0.0999999 2.5 -0.2
v -0.0999999 2.6 0.3
v -0.0999999 2.6 0.2
v -0.0999999 2.6 -0.1
v -0.0999999 2.6 -0.2
v -0.0999999 2.7 0.2
v -0.0999999 2.7 -0.1
v 0.1 1.6 0.2
v 0.1 1.6 -0.1
v 0.1 1.7 0.3
v 0.1 1.7 0.2
v 0.1 1.7 0.1
v 0.1 1.7 -2.98023e-008
v 0.1 1.7 -0.1
v 0.1 1.7 -0.2
v 0.1 1.8 0.3
v 0.1 1.8 0.2
v 0.1 1.8 -0.1
v 0.1 1.8 -0.2
v 0.1 1.9 0.3
v 0.1 1.9 0.2
v 0.1 1.9 -0.1
v 0.1 1.9 -0.2
v 0.1 2 0.3
v 0.1 2 0.2
v 0.1 2 -0.1
v 0.1 2 -0.2
v 0.1 2.1 0.3
v 0.1 2.1 0.2
v 0.1 2.1 -0.1
v 0.1 2.1 -0.2
v 0.1 2.2 0.3
v 0.1 2.2 0.2
v 0.1 2.2 -0.1
v 0.1 2.2 -0.2
v 0.1 2.3 0.3
v 0.1 2.3 0.2
v 0.1 2.3 -0.1
v 0.1 2.3 -0.2
v 0.1 2.4 0.3
v 0.1 2.4 0.2
v 0.1 2.4 -0.1
v 0.1 2.4 -0.2
v 0.1 2.5 0.3
v 0.1 2.5 0.2
v 0.1 2.5 -0.1
v 0.1 2.5 -0.2
v 0.1 2.6 0.3
v 0.1 2.6 0.2
v 0.1 2.6 0.1
v 0.1 2.6 -2.98023e-008
v 0.1 2.6 -0.1
v 0.1 2.6 -0.2
v 0.1 2.7 0.2
v 0.1 2.7 -0.1
v 0.2 1.7 0.2
v 0.2 1.7 0.1
v 0.2 1.7 -2.98023e-008
v 0.2 1.7 -0.1
v 0.2 1.8 0.2
v 0.2 1.8 0.1
v 0.2 1.8 -2.98023e-008
v 0.2 1.8 -0.1
v 0.2 1.9 0.2
v 0.2 1.9 0.1
v 0.2 1.9 -2.98023e-008
v 0.2 1.9 -0.1
v 0.2 2 0.1
v 0.2 2 -2.98023e-008
v 0.2 2.1 0.2
v 0.2 2.1 0.1
v 0.2 2.1 -2.98023e-008
v 0.2 2.1 -0.1
v 0.2 2.2 0.2
v 0.2 2.2 0.1
v 0.2 2.2 -2.98023e-008
v 0.2 2.2 -0.1
v 0.2 2.3 0.2
v 0.2 2.3 0.1
v 0.2 2.3 -2.98023e-008
v 0.2 2.3 -0.1
v 0.2 2.4 0.2
v 0.2 2.4 0.1
v 0.2 2.4 -2.98023e-008
v 0.2 2.4 -0.1
v 0.2 2.5 0.2
v 0.2 2.5 0.1
v 0.2 2.5 -2.98023e-008
v 0.2 2.5 -0.1
v 0.2 2.6 0.2
v 0.2 2.6 0.1
v 0.2 2.6 -2.98023e-008
v 0.2 2.6 -0.1
v -0.0999999 1.7 0.3
v -0.0999999 1.8 0.3
v -0.0999999 1.9 0.3
v -0.0999999 2 0.3
v -0.0999999 2.1 0.3
v -0.0999999 2.2 0.3
v -0.0999999 2.3 0.3
v -0.0999999 2.4 0.3
v -0.0999999 2.5 0.3
v -0.0999999 2.6 0.3
v 0.1 1.7 0.3
v 0.1 1.8 0.3
v 0.1 1.9 0.3
v 0.1 2 0.3
v 0.1 2.1 0.3
v 0.1 2.2 0.3
v 0.1 2.3 0.3
v 0.1 2.4 0.3
v 0.1 2.5 0.3
v 0.1 2.6 0.3
v -0.2 1.7 0.2
v -0.2 1.8 0.2
v -0.2 1.9 0.2
v -0.2 2 0.2
v -0.2 2.1 0.2
v -0.2 2.2 0.2
v -0.2 2.3 0.2
v -0.2 2.4 0.2
v -0.2 2.5 0.2
v -0.2 2.6 0.2
v -0.0999999 1.6 0.2
v -0.0999999 1.7 0.2
v -0.0999999 1.8 0.2
v -0.0999999 1.9 0.2
v -0.0999999 2 0.2
v -0.0999999 2.1 0.2
v -0.0999999 2.2 0.2
v -0.0999999 2.3 0.2
v -0.0999999 2.4 0.2
v -0.0999999 2.5 0.2
v -0.0999999 2.6 0.2
v -0.0999999 2.7 0.2
v 0.1 1.6 0.2
v 0.1 1.7 0.2
v 0.1 1.8 0.2
v 0.1 1.9 0.2
v 0.1 2 0.2
v 0.1 2.1 0.2
v 0.1 2.2 0.2
v 0.1 2.3 0.2
v 0.1 2.4 0.2
v 0.1 2.5 0.2
v 0.1 2.6 0.2
v 0.1 2.7 0.2
v 0.2 1.7 0.2
v 0.2 1.8 0.2
v 0.2 1.9 0.2
v 0.2 2.1 0.2
v 0.2 2.2 0.2
v 0.2 2.3 0.2
v 0.2 2.4 0.2
v 0.2 2.5 0.2
v 0.2 2.6 0.2
v -0.2 1.7 -0.1
v -0.2 1.8 -0.1
v -0.2 1.9 -0.1
v -0.2 2 -0.1
v -0.2 2.1 -0.1
v -0.2 2.2 -0.1
v -0.2 2.3 -0.1
v -0.2 2.4 -0.1
v -0.2 2.5 -0.1
v -0.2 2.6 -0.1
v -0.0999999 1.6 -0.1
v -0.0999999 1.7 -0.1
v -0.0999999 1.8 -0.1
v -0.0999999 1.9 -0.1
v -0.0999999 2 -0.1
v -0.0999999 2.1 -0.1
v -0.0999999 2.2 -0.1
v -0.0999999 2.3 -0.1
v -0.0999999 2.4 -0.1
v -0.0999999 2.5 -0.1
v -0.0999999 2.6 -0.1
v -0.0999999 2.7 -0.1
v 0.1 1.6 -0.1
v 0.1 1.7 -0.1
v 0.1 1.8 -0.1
v 0.1 1.9 -0.1
v 0.1 2 -0.1
v 0.1 2.1 -0.1
v 0.1 2.2 -0.1
v 0.1 2.3 -0.1
v 0.1 2.4 -0.1
v 0.1 2.5 -0.1
v 0.1 2.6 -0.1
v 0.1 2.7 -0.1
v 0.2 1.7 -0.1
v 0.2 1.8 -0.1
v 0.2 1.9 -0.1
v 0.2 2.1 -0.1
v 0.2 2.2 -0.1
v 0.2 2.3 -0.1
v 0.2 2.4 -0.1
v 0.2 2.5 -0.1
v 0.2 2.6 -0.1
v -0.0999999 1.7 -0.2
v -0.0999999 1.8 -0.2
v -0.0999999 1.9 -0.2
v -0.0999999 2 -0.2
v -0.0999999 2.1 -0.2
v -0.0999999 2.2 -0.2
v -0.0999999 2.3 -0.2
v -0.0999999 2.4 -0.2
v -0.0999999 2.5 -0.2
v -0.0999999 2.6 -0.2
v 0.1 1.7 -0.2
v 0.1 1.8 -0.2
v 0.1 1.9 -0.2
v 0.1 2 -0.2
v 0.1 2.1 -0.2
v 0.1 2.2 -0.2
v 0.1 2.3 -0.2
v 0.1 2.4 -0.2
v 0.1 2.5 -0.2
v 0.1 2.6 -0.2
v -0.0999999 1.6 0.2
v 0.1 1.6 0.2
v -0.0999999 1.6 -0.1
v 0.1 1.6 -0.1
v -0.0999999 1.7 0.3
v 0.1 1.7 0.3
v -0.2 1.7 0.2
v -0.0999999 1.7 0.2
v 0.1 1.7 0.2
v 0.2 1.7 0.2
v 0.1 1.7 0.1
v 0.2 1.7 0.1
v 0.1 1.7 -2.98023e-008
v 0.2 1.7 -2.98023e-008
v -0.2 1.7 -0.1
v -0.0999999 1.7 -0.1
v 0.1 1.7 -0.1
v 0.2 1.7 -0.1
v -0.0999999 1.7 -0.2
v 0.1 1.7 -0.2
v -0.0999999 2.6 0.3
v 0.1 2.6 0.3
v -0.2 2.6 0.2
v -0.0999999 2.6 0.2
v 0.1 2.6 0.2
v 0.2 2.6 0.2
v 0.1 2.6 0.1
v 0.2 2.6 0.1
v 0.1 2.6 -2.98023e-008
v 0.2 2.6 -2.98023e-008
v -0.2 2.6 -0.1
v -0.0999999 2.6 -0.1
v 0.1 2.6 -0.1
v 0.2 2.6 -0.1
v -0.0999999 2.6 -0.2
v 0.1 2.6 -0.2
v -0.0999999 2.7 0.2
v 0.1 2.7 0.2
v -0.0999999 2.7 -0.1
v 0.1 2.7 -0.1

# faces
f 3/2/1 2/2/1 1/2/1
f 4/2/1 2/2/1 3/2/1
f 5/1/1 4/1/1 3/1/1
f 6/1/1 4/1/1 5/1/1
f 7/2/1 6/2/1 5/2/1
f 8/2/1 6/2/1 7/2/1
f 9/1/1 8/1/1 7/1/1
f 10/1/1 8/1/1 9/1/1
f 11/2/1 10/2/1 9/2/1
f 12/2/1 10/2/1 11/2/1
f 13/1/1 12/1/1 11/1/1
f 14/1/1 12/1/1 13/1/1
f 15/2/1 14/2/1 13/2/1
f 16/2/1 14/2/1 15/2/1
f 17/1/1 16/1/1 15/1/1
f 18/1/1 16/1/1 17/1/1
f 19/2/1 18/2/1 17/2/1
f 20/2/1 18/2/1 19/2/1
f 24/4/1 22/4/1 21/4/1
f 25/4/1 22/4/1 24/4/1
f 27/2/1 24/2/1 23/2/1
f 28/2/1 24/2/1 27/2/1
f 29/2/1 26/2/1 25/2/1
f 30/2/1 26/2/1 29/2/1
f 31/1/1 28/1/1 27/1/1
f 32/1/1 28/1/1 31/1/1
f 33/1/1 30/1/1 29/1/1
f 34/1/1 30/1/1 33/1/1
f 35/2/1 32/2/1 31/2/1
f 36/2/1 32/2/1 35/2/1
f 37/2/1 34/2/1 33/2/1
f 38/2/1 34/2/1 37/2/1
f 39/1/1 36/1/1 35/1/1
f 40/1/1 36/1/1 39/1/1
f 41/1/1 38/1/1 37/1/1
f 42/1/1 38/1/1 41/1/1
f 43/2/1 40/2/1 39/2/1
f 44/2/1 40/2/1 43/2/1
f 45/2/1 42/2/1 41/2/1
f 46/2/1 42/2/1 45/2/1
f 47/1/1 44/1/1 43/1/1
f 48/1/1 44/1/1 47/1/1
f 49/1/1 46/1/1 45/1/1
f 50/1/1 46/1/1 49/1/1
f 51/2/1 48/2/1 47/2/1
f 52/2/1 48/2/1 51/2/1
f 53/2/1 50/2/1 49/2/1
f 54/2/1 50/2/1 53/2/1
f 55/1/1 52/1/1 51/1/1
f 56/1/1 52/1/1 55/1/1
f 57/1/1 54/1/1 53/1/1
f 58/1/1 54/1/1 57/1/1
f 59/2/1 56/2/1 55/2/1
f 60/2/1 56/2/1 59/2/1
f 61/2/1 58/2/1 57/2/1
f 62/2/1 58/2/1 61/2/1
f 63/3/1 61/3/1 60/3/1
f 64/3/1 61/3/1 63/3/1
f 65/4/2 66/4/2 68/4/2
f 68/4/2 66/4/2 69/4/2
f 69/4/2 66/4/2 70/4/2
f 70/4/2 66/4/2 71/4/2
f 67/2/2 68/2/2 73/2/2
f 73/2/2 68/2/2 74/2/2
f 71/2/2 72/2/2 75/2/2
f 75/2/2 72/2/2 76/2/2
f 73/1/2 74/1/2 77/1/2
f 77/1/2 74/1/2 78/1/2
f 75/1/2 76/1/2 79/1/2
f 79/1/2 76/1/2 80/1/2
f 77/2/2 78/2/2 81/2/2
f 81/2/2 78/2/2 82/2/2
f 79/2/2 80/2/2 83/2/2
f 83/2/2 80/2/2 84/2/2
f 81/1/2 82/1/2 85/1/2
f 85/1/2 82/1/2 86/1/2
f 83/1/2 84/1/2 87/1/2
f 87/1/2 84/1/2 88/1/2
f 85/2/2 86/2/2 89/2/2
f 89/2/2 86/2/2 90/2/2
f 87/2/2 88/2/2 91/2/2
f 91/2/2 88/2/2 92/2/2
f 89/1/2 90/1/2 93/1/2
f 93/1/2 90/1/2 94/1/2
f 91/1/2 92/1/2 95/1/2
f 95/1/2 92/1/2 96/1/2
f 93/2/2 94/2/2 97/2/2
f 97/2/2 94/2/2 98/2/2
f 95/2/2 96/2/2 99/2/2
f 99/2/2 96/2/2 100/2/2
f 97/1/2 98/1/2 101/1/2
f 101/1/2 98/1/2 102/1/2
f 99/1/2 100/1/2 103/1/2
f 103/1/2 100/1/2 104/1/2
f 101/2/2 102/2/2 105/2/2
f 105/2/2 102/2/2 106/2/2
f 103/2/2 104/2/2 109/2/2
f 109/2/2 104/2/2 110/2/2
f 107/3/2 108/3/2 111/3/2
f 108/3/2 109/3/2 111/3/2
f 106/3/2 107/3/2 111/3/2
f 111/3/2 109/3/2 112/3/2
f 113/4/2 114/4/2 117/4/2
f 114/2/2 115/2/2 118/2/2
f 117/4/2 114/4/2 118/4/2
f 115/4/2 116/4/2 119/4/2
f 118/2/2 115/2/2 119/2/2
f 119/4/2 116/4/2 120/4/2
f 117/1/2 118/1/2 121/1/2
f 118/4/2 119/4/2 122/4/2
f 121/1/2 118/1/2 122/1/2
f 119/1/2 120/1/2 123/1/2
f 122/4/2 119/4/2 123/4/2
f 123/1/2 120/1/2 124/1/2
f 121/4/2 122/4/2 125/4/2
f 122/2/2 123/2/2 125/2/2
f 123/4/2 124/4/2 126/4/2
f 125/2/2 123/2/2 126/2/2
f 121/4/2 125/4/2 127/4/2
f 125/1/2 126/1/2 128/1/2
f 127/4/2 125/4/2 128/4/2
f 126/4/2 124/4/2 129/4/2
f 128/1/2 126/1/2 129/1/2
f 129/4/2 124/4/2 130/4/2
f 127/2/2 128/2/2 131/2/2
f 128/4/2 129/4/2 132/4/2
f 131/2/2 128/2/2 132/2/2
f 129/2/2 130/2/2 133/2/2
f 132/4/2 129/4/2 133/4/2
f 133/2/2 130/2/2 134/2/2
f 131/4/2 132/4/2 135/4/2
f 132/1/2 133/1/2 136/1/2
f 135/4/2 132/4/2 136/4/2
f 133/4/2 134/4/2 137/4/2
f 136/1/2 133/1/2 137/1/2
f 137/4/2 134/4/2 138/4/2
f 135/2/2 136/2/2 139/2/2
f 136/4/2 137/4/2 140/4/2
f 139/2/2 136/2/2 140/2/2
f 137/2/2 138/2/2 141/2/2
f 140/4/2 137/4/2 141/4/2
f 141/2/2 138/2/2 142/2/2
f 139/1/2 140/1/2 143/1/2
f 140/4/2 141/4/2 144/4/2
f 143/1/2 140/1/2 144/1/2
f 141/1/2 142/1/2 145/1/2
f 144/4/2 141/4/2 145/4/2
f 145/1/2 142/1/2 146/1/2
f 143/2/2 144/2/2 147/2/2
f 144/4/2 145/4/2 148/4/2
f 147/2/2 144/2/2 148/2/2
f 145/2/2 146/2/2 149/2/2
f 148/4/2 145/4/2 149/4/2
f 149/2/2 146/2/2 150/2/2
f 161/2/3 152/2/3 151/2/3
f 162/1/3 153/1/3 152/1/3
f 162/2/3 152/2/3 161/2/3
f 163/2/3 154/2/3 153/2/3
f 163/1/3 153/1/3 162/1/3
f 164/1/3 155/1/3 154/1/3
f 164/2/3 154/2/3 163/2/3
f 165/2/3 156/2/3 155/2/3
f 165/1/3 155/1/3 164/1/3
f 166/1/3 157/1/3 156/1/3
f 166/2/3 156/2/3 165/2/3
f 167/2/3 158/2/3 157/2/3
f 167/1/3 157/1/3 166/1/3
f 168/1/3 159/1/3 158/1/3
f 168/2/3 158/2/3 167/2/3
f 169/2/3 160/2/3 159/2/3
f 169/1/3 159/1/3 168/1/3
f 170/2/3 160/2/3 169/2/3
f 182/2/3 172/2/3 171/2/3
f 183/1/3 173/1/3 172/1/3
f 183/2/3 172/2/3 182/2/3
f 184/2/3 174/2/3 173/2/3
f 184/1/3 173/1/3 183/1/3
f 185/1/3 175/1/3 174/1/3
f 185/2/3 174/2/3 184/2/3
f 186/2/3 176/2/3 175/2/3
f 186/1/3 175/1/3 185/1/3
f 187/1/3 177/1/3 176/1/3
f 187/2/3 176/2/3 186/2/3
f 188/2/3 178/2/3 177/2/3
f 188/1/3 177/1/3 187/1/3
f 189/1/3 179/1/3 178/1/3
f 189/2/3 178/2/3 188/2/3
f 190/2/3 180/2/3 179/2/3
f 190/1/3 179/1/3 189/1/3
f 191/2/3 180/2/3 190/2/3
f 193/4/3 182/4/3 181/4/3
f 194/4/3 182/4/3 193/4/3
f 203/3/3 192/3/3 191/3/3
f 204/3/3 192/3/3 203/3/3
f 205/4/3 195/4/3 194/4/3
f 206/1/3 196/1/3 195/1/3
f 206/4/3 195/4/3 205/4/3
f 207/4/3 197/4/3 196/4/3
f 207/1/3 196/1/3 206/1/3
f 207/4/3 198/4/3 197/4/3
f 208/2/3 199/2/3 198/2/3
f 208/4/3 198/4/3 207/4/3
f 209/4/3 200/4/3 199/4/3
f 209/2/3 199/2/3 208/2/3
f 210/2/3 201/2/3 200/2/3
f 210/4/3 200/4/3 209/4/3
f 211/1/3 202/1/3 201/1/3
f 211/2/3 201/2/3 210/2/3
f 212/2/3 203/2/3 202/2/3
f 212/1/3 202/1/3 211/1/3
f 213/2/3 203/2/3 212/2/3
f 214/2/4 215/2/4 225/2/4
f 215/1/4 216/1/4 226/1/4
f 225/2/4 215/2/4 226/2/4
f 216/2/4 217/2/4 227/2/4
f 226/1/4 216/1/4 227/1/4
f 217/1/4 218/1/4 228/1/4
f 227/2/4 217/2/4 228/2/4
f 218/2/4 219/2/4 229/2/4
f 228/1/4 218/1/4 229/1/4
f 219/1/4 220/1/4 230/1/4
f 229/2/4 219/2/4 230/2/4
f 220/2/4 221/2/4 231/2/4
f 230/1/4 220/1/4 231/1/4
f 221/1/4 222/1/4 232/1/4
f 231/2/4 221/2/4 232/2/4
f 222/2/4 223/2/4 233/2/4
f 232/1/4 222/1/4 233/1/4
f 233/2/4 223/2/4 234/2/4
f 224/4/4 225/4/4 236/4/4
f 236/4/4 225/4/4 237/4/4
f 234/3/4 235/3/4 246/3/4
f 246/3/4 235/3/4 247/3/4
f 237/4/4 238/4/4 248/4/4
f 238/1/4 239/1/4 249/1/4
f 248/4/4 238/4/4 249/4/4
f 239/4/4 240/4/4 250/4/4
f 249/1/4 239/1/4 250/1/4
f 240/4/4 241/4/4 250/4/4
f 241/2/4 242/2/4 251/2/4
f 250/4/4 241/4/4 251/4/4
f 242/4/4 243/4/4 252/4/4
f 251/2/4 242/2/4 252/2/4
f 243/2/4 244/2/4 253/2/4
f 252/4/4 243/4/4 253/4/4
f 244/1/4 245/1/4 254/1/4
f 253/2/4 244/2/4 254/2/4
f 245/2/4 246/2/4 255/2/4
f 254/1/4 245/1/4 255/1/4
f 255/2/4 246/2/4 256/2/4
f 257/2/4 258/2/4 267/2/4
f 258/1/4 259/1/4 268/1/4
f 267/2/4 258/2/4 268/2/4
f 259/2/4 260/2/4 269/2/4
f 268/1/4 259/1/4 269/1/4
f 260/1/4 261/1/4 270/1/4
f 269/2/4 260/2/4 270/2/4
f 261/2/4 262/2/4 271/2/4
f 270/1/4 261/1/4 271/1/4
f 262/1/4 263/1/4 272/1/4
f 271/2/4 262/2/4 272/2/4
f 263/2/4 264/2/4 273/2/4
f 272/1/4 263/1/4 273/1/4
f 264/1/4 265/1/4 274/1/4
f 273/2/4 264/2/4 274/2/4
f 265/2/4 266/2/4 275/2/4
f 274/1/4 265/1/4 275/1/4
f 275/2/4 266/2/4 276/2/4
f 279/4/5 278/4/5 277/4/5
f 280/4/5 278/4/5 279/4/5
f 284/2/5 282/2/5 281/2/5
f 285/2/5 282/2/5 284/2/5
f 287/4/5 286/4/5 285/4/5
f 288/4/5 286/4/5 287/4/5
f 289/2/5 288/2/5 287/2/5
f 290/2/5 288/2/5 289/2/5
f 291/2/5 284/2/5 283/2/5
f 292/2/5 284/2/5 291/2/5
f 293/4/5 290/4/5 289/4/5
f 294/4/5 290/4/5 293/4/5
f 295/2/5 293/2/5 292/2/5
f 296/2/5 293/2/5 295/2/5
f 297/2/6 298/2/6 300/2/6
f 300/2/6 298/2/6 301/2/6
f 301/2/6 302/2/6 303/2/6
f 303/2/6 302/2/6 304/2/6
f 303/4/6 304/4/6 305/4/6
f 305/4/6 304/4/6 306/4/6
f 299/2/6 300/2/6 307/2/6
f 307/2/6 300/2/6 308/2/6
f 305/2/6 306/2/6 309/2/6
f 309/2/6 306/2/6 310/2/6
f 308/2/6 309/2/6 311/2/6
f 311/2/6 309/2/6 312/2/6
f 313/3/6 314/3/6 315/3/6
f 315/3/6 314/3/6 316/3/6
